<svg version="1.1" xmlns="http://www.w3.org/2000/svg" viewBox="0 0 440 98">
  <style>
      svg {
        fill: #737f8c;
      }
      #logoS {
        fill: #3D668F;
      }
      #logoMethod {
        fill: #8f98a3;
      }
  </style>
  <path id="logoS" d="M50.782,44.914c0,2.883-0.422,5.086-1.266,6.609c-2.109,3.867-8.297,5.801-18.563,5.801H0.017v-8.543h32.379
    c5.625,0,8.438-1.113,8.438-3.34v-2.988c0-2.391-3.188-3.586-9.563-3.586H17.524c-4.313,0-8.086-0.809-11.32-2.426
    c-4.102-2.039-6.152-4.992-6.152-8.859v-3.234c0-5.086,2.461-8.52,7.383-10.301c3.023-1.125,7.629-1.688,13.816-1.688h6.785v8.438
    h-7.98c-6.727,0-10.09,1.16-10.09,3.48v2.637c0,2.18,3.551,3.27,10.652,3.27H31.06c4.992,0,9.199,0.727,12.621,2.18
    c4.711,1.992,7.066,5.145,7.066,9.457c0,0.328,0,0.844,0,1.547C50.77,44.07,50.782,44.586,50.782,44.914z"/>
  <path d="M53.535,0.22c-6.07,0-11,4.92-11,11c0,6.069,4.93,11,11,11c6.08,0,11-4.931,11-11C64.535,5.14,59.615,0.22,53.535,0.22z
     M53.535,19.529c-4.59,0-8.31-3.72-8.31-8.31c0-4.591,3.72-8.311,8.31-8.311c4.59,0,8.31,3.72,8.31,8.311
    C61.845,15.81,58.125,19.529,53.535,19.529z"/>
  <g id="logoMethod">
    <path d="M150.725,57.289h-9.914V28.496l-21.164,26.086c-1.524,1.875-3.445,2.813-5.766,2.813c-2.368,0-4.313-0.938-5.836-2.813
      L86.495,28.32v28.934l-9.914,0.035V17.281c0-1.547,0.498-2.766,1.494-3.656c0.996-0.891,2.279-1.336,3.85-1.336
      c2.273,0,4.078,0.797,5.414,2.391l26.613,31.5l25.98-31.535c1.336-1.617,3.094-2.426,5.273-2.426c1.617,0,2.941,0.498,3.973,1.494
      s1.547,2.291,1.547,3.885V57.289z"/>
    <path d="M210.377,57.096h-26.484c-3.867,0-7.207-0.664-10.02-1.992c-3.613-1.758-5.42-4.355-5.42-7.793V29.615
      c0-3.555,1.875-6.201,5.625-7.939c2.871-1.348,6.328-2.021,10.371-2.021h8.408v7.061h-7.998c-5.469,0-8.203,0.967-8.203,2.9v5.361
      h33.721v7.119h-33.662v4.98c0,1.934,2.49,2.9,7.471,2.9h26.191V57.096z"/>
    <path d="M256.323,26.715h-16.816v30.586h-8.232V26.715h-16.758v-7.061h41.807V26.715z"/>
    <path d="M317.336,57.271h-8.203V42.096h-29.766v15.176l-8.262,0.029V19.449h8.262v15.527h29.766V19.449h8.203V57.271z"/>
    <path d="M378.086,46.637c0,6.973-5.811,10.459-17.432,10.459h-10.137c-4.551,0-8.301-0.635-11.25-1.904
      c-4.082-1.758-6.123-4.6-6.123-8.525V30.201c0-7.031,5.791-10.547,17.373-10.547h10.137c5.137,0,8.984,0.527,11.543,1.582
      c3.926,1.602,5.889,4.59,5.889,8.965V46.637z M369.795,46.49V30.348c0-2.422-2.998-3.633-8.994-3.633h-10.313
      c-6.055,0-9.082,1.211-9.082,3.633V46.49c0,2.324,3.027,3.486,9.082,3.486h10.342C366.807,49.977,369.795,48.814,369.795,46.49z"/>
    <path d="M439.979,46.578c0,3.672-1.768,6.436-5.303,8.291c-2.813,1.484-6.221,2.227-10.225,2.227h-30.703V19.654h30.85
      c4.141,0,7.52,0.635,10.137,1.904c3.496,1.68,5.244,4.365,5.244,8.057V46.578z M431.776,46.549V29.645
      c0-1.055-0.986-1.846-2.959-2.373c-1.348-0.371-2.813-0.557-4.395-0.557H402.01v23.262h22.295c1.719,0,3.242-0.205,4.57-0.615
      C430.809,48.775,431.776,47.838,431.776,46.549z"/>
  </g>
  <g>
    <path d="M4.422,98.047H0.016V77.859h4.406V98.047z"/>
    <path d="M50.652,95.422c0,1.761-0.724,2.641-2.172,2.641c-0.865,0-1.698-0.344-2.5-1.031L30.559,83.922v14.141l-4.406-0.016V80.359
      c0-1.697,0.703-2.547,2.109-2.547c0.948,0,1.864,0.381,2.75,1.141L46.23,91.891V77.813h4.422V95.422z"/>
    <path d="M94.165,81.734h-8.969v16.313h-4.391V81.734h-8.938v-3.766h22.297V81.734z"/>
    <path d="M137.708,97.938h-14.125c-2.063,0-3.844-0.354-5.344-1.063c-1.927-0.938-2.891-2.322-2.891-4.156v-9.438
      c0-1.896,1-3.307,3-4.234c1.531-0.719,3.375-1.078,5.531-1.078h4.484v3.766h-4.266c-2.917,0-4.375,0.516-4.375,1.547v2.859h17.984
      v3.797h-17.953v2.656c0,1.031,1.328,1.547,3.984,1.547h13.969V97.938z"/>
    <path d="M183.813,98.063h-8.016l-12.156-6.75v6.75h-4.406V77.969h15.656c2.313,0,4.213,0.323,5.703,0.969
      c2.063,0.886,3.094,2.323,3.094,4.313v2.297c0,1.875-0.948,3.25-2.844,4.125c-1.417,0.656-3.188,0.984-5.313,0.984h-5.125
      L183.813,98.063z M179.282,85.578v-2.406c0-0.958-1.287-1.438-3.859-1.438h-11.781v5.156h12.563
      C178.256,86.891,179.282,86.453,179.282,85.578z"/>
    <path d="M234.856,98.109h-4.953l-3.656-5.188h-13.641l-3.563,5.188h-5.188l13.172-18.734c0.637-0.906,1.459-1.359,2.469-1.359
      c1.021,0,1.84,0.448,2.453,1.344L234.856,98.109z M223.559,89.109l-4.219-5.969l-4.125,5.969H223.559z"/>
    <path d="M276.899,97.938h-13.578c-5.947,0-8.922-1.797-8.922-5.391v-9.469c0-1.875,0.99-3.255,2.969-4.141
      c1.449-0.646,3.25-0.969,5.406-0.969h14.125v3.766h-14.578c-2.344,0-3.516,0.443-3.516,1.328v9.422
      c0,1.104,1.506,1.656,4.516,1.656h13.578V97.938z"/>
    <path d="M320.129,81.734h-8.969v16.313h-4.391V81.734h-8.938v-3.766h22.297V81.734z"/>
    <path d="M345.641,98.047h-4.406V77.859h4.406V98.047z"/>
    <path d="M397.012,77.891l-13.156,18.734c-0.645,0.906-1.473,1.359-2.484,1.359c-1.01,0-1.822-0.447-2.438-1.344l-12.906-18.75
      h4.938l10.578,14.969l10.297-14.969H397.012z"/>
    <path d="M439.745,97.938H425.62c-2.063,0-3.844-0.354-5.344-1.063c-1.928-0.938-2.891-2.322-2.891-4.156v-9.438
      c0-1.896,1-3.307,3-4.234c1.531-0.719,3.375-1.078,5.531-1.078h4.484v3.766h-4.266c-2.918,0-4.375,0.516-4.375,1.547v2.859h17.984
      v3.797h-17.953v2.656c0,1.031,1.328,1.547,3.984,1.547h13.969V97.938z"/>
  </g>
</svg>
